HIERARCHY
ROOT Hips
{
	OFFSET 0.000000 0.000000 0.000000 
	CHANNELS 6 Xposition Yposition Zposition Yrotation Zrotation Xrotation 
	JOINT Lumbar
	{
		OFFSET 0.000000 0.000000 0.000000 
		CHANNELS 3 Zrotation Xrotation Yrotation
		JOINT Neck
		{
			OFFSET 0.000000 0.445665 0.000000 
			CHANNELS 3 Zrotation Xrotation Yrotation
			End Site
			{
				OFFSET 0.000000 0.227535 0.000000 
			}
		}
		JOINT RightShoulder
		{
			OFFSET 0.019635 0.377685 0.194865 
			CHANNELS 3 Zrotation Xrotation Yrotation
			JOINT RightElbow
			{
				OFFSET 0.000000 -0.243375 0.000000 
				CHANNELS 2 Zrotation Yrotation
				JOINT RightWrist
				{
					OFFSET 0.000000 -0.264825 0.000000 
					CHANNELS 2 Zrotation Xrotation
					End Site
					{
						OFFSET 0.006600 -0.176220 0.000990 
					}
				}
			}
		}
		JOINT LeftShoulder
		{
			OFFSET 0.019635 0.377685 -0.194865 
			CHANNELS 3 Zrotation Xrotation Yrotation
			JOINT LeftElbow
			{
				OFFSET 0.000000 -0.243375 0.000000 
				CHANNELS 2 Zrotation Yrotation
				JOINT LeftWrist
				{
					OFFSET 0.000000 -0.264825 0.000000 
					CHANNELS 2 Zrotation Xrotation
					End Site
					{
						OFFSET 0.006600 -0.176220 -0.000990 
					}
				}
			}
		}
	}
	JOINT RightHip
	{
		OFFSET 0.052140 -0.069960 0.075570 
		CHANNELS 3 Zrotation Xrotation Yrotation
		JOINT RightKnee
		{
			OFFSET 0.000000 -0.402270 0.000000 
			CHANNELS 1 Zrotation
			JOINT RightAnkle
			{
				OFFSET 0.000000 -0.404085 0.000000 
				CHANNELS 3 Zrotation Xrotation Yrotation
				End Site
				{
					OFFSET 0.204105 -0.089430 0.008415 
				}
			}
		}
	}
	JOINT LeftHip
	{
		OFFSET 0.052140 -0.069960 -0.075570 
		CHANNELS 3 Zrotation Xrotation Yrotation
		JOINT LeftKnee
		{
			OFFSET 0.000000 -0.402270 0.000000 
			CHANNELS 1 Zrotation
			JOINT LeftAnkle
			{
				OFFSET 0.000000 -0.404085 0.000000 
				CHANNELS 3 Zrotation Xrotation Yrotation
				End Site
				{
					OFFSET 0.204105 -0.089430 -0.008415 
				}
			}
		}
	}
}
MOTION
Frames: 23
Frame Time: 0.02
0.84124 0.92449 -0.54819 248.72254 0 -7.98791 8.73609 6.30069 3.11077 -29.92025 3.91991 11.04046 31.10376 -16.81229 47.88281 93.13439 20.13181 35.97919 -14.51422 20.89838 11.51787 26.07378 16.66823 -78.28753 -8.02259 1.14598 0.4042 12.28554 -12.78139 -20.04407 10.85404 -6.75337 -6.86641 23.45979 5.68776 -18.69061 -77.0611 1.91936 1.7556 0.59457
0.83526 0.92642 -0.5434 249.21765 0 -7.4434 8.49606 6.50187 4.46799 -30.04221 2.63927 10.69125 31.03813 -15.74923 47.55027 92.95713 20.31871 36.19297 -14.39558 19.16985 15.15669 33.27808 16.37085 -75.83545 -9.17028 0.61168 0.11574 12.06549 -12.30972 -20.27007 10.71382 -6.91921 -7.6318 24.70783 4.46976 -16.6554 -76.0383 2.30952 1.79768 0.83435
0.83016 0.92917 -0.53809 249.3435 0 -6.77397 8.27805 6.62491 5.87242 -30.20866 1.35992 10.35821 31.04709 -14.85178 47.44255 92.84951 19.92412 36.44387 -14.53142 17.08115 19.12619 41.06356 16.3811 -73.32186 -10.9315 0.19615 -0.16409 11.73344 -11.2058 -20.40915 10.38622 -7.05857 -8.64197 25.56391 3.1917 -14.4007 -73.79181 2.69394 1.72806 0.6411
0.82469 0.9315 -0.53301 249.63481 0 -6.16501 8.04863 6.7812 7.26658 -30.35393 0.08153 10.00718 31.0141 -13.86009 47.19399 92.69896 19.80988 36.68645 -14.54357 15.15296 22.97614 48.49413 16.29841 -70.86116 -12.46686 -0.25786 -0.44776 11.45243 -10.40831 -20.58911 10.15233 -7.20605 -9.51718 26.57458 1.94899 -12.26907 -72.04558 3.08022 1.72794 0.70252
0.81917 0.93402 -0.52798 249.91202 0 -5.52673 7.82391 6.94403 8.63523 -30.50488 -1.21746 9.70006 31.0106 -12.9373 47.08904 92.59556 19.67076 36.89136 -14.5711 13.21918 26.72356 56.34192 16.04349 -68.27997 -13.79177 -0.78292 -0.71813 11.16034 -9.50634 -20.77886 9.88422 -7.37049 -10.49265 27.67819 0.64836 -10.01521 -70.51174 3.48887 1.65271 0.54623
0.81393 0.93633 -0.52271 250.13982 0 -4.9254 7.59528 7.07512 10.05672 -30.65361 -2.46582 9.30756 30.96565 -11.91662 46.74846 92.41164 19.43028 37.1826 -14.63376 11.22179 30.74829 63.43239 16.21399 -65.94835 -15.68588 -1.13012 -1.01907 10.86899 -8.68134 -20.92256 9.64309 -7.49383 -11.31751 28.49495 -0.53575 -7.97249 -68.25205 3.84218 1.7036 0.72374
0.80921 0.93796 -0.51701 250.32505 0 -4.45307 7.34878 7.14614 11.65068 -30.78903 -3.59894 8.65281 30.78105 -10.5619 45.67149 91.97723 19.03393 37.72176 -14.73631 9.10801 35.50915 68.44653 17.44249 -64.22837 -19.12 -1.0093 -1.41081 10.60376 -8.21911 -20.9483 9.51088 -7.50167 -11.66466 28.64767 -1.39528 -6.57276 -64.31231 4.04404 2.15847 2.01164
0.80473 0.93934 -0.51108 250.47596 0 -4.02463 7.09838 7.18655 13.28583 -30.91954 -4.67461 7.91579 30.5537 -9.10946 44.35846 91.46192 18.55275 38.34301 -14.86718 6.95593 40.52317 72.64222 19.09261 -62.77867 -23.08121 -0.71405 -1.83502 10.34492 -7.86022 -20.93062 9.41401 -7.4705 -11.8521 28.52036 -2.13015 -5.39562 -59.68543 4.18763 2.73887 3.63309
0.80015 0.94079 -0.50522 250.6439 0 -3.58062 6.8506 7.23646 14.87541 -31.05002 -5.75945 7.23084 30.35149 -7.71707 43.1751 90.99014 18.11587 38.91557 -14.98439 4.83531 45.38674 77.11236 20.57194 -61.26843 -26.726 -0.50138 -2.24329 10.08712 -7.46039 -20.93829 9.30801 -7.46252 -12.11389 28.50186 -2.91081 -4.11569 -55.35781 4.35524 3.24267 5.04384
0.79556 0.94247 -0.4995 250.793 0 -3.11429 6.59862 7.30367 16.58309 -31.19269 -6.91739 6.48383 30.12905 -6.26047 41.90177 90.48997 17.63492 39.53947 -15.11343 2.61917 50.41898 82.03222 21.97232 -59.49798 -30.72585 -0.26976 -2.65512 9.80972 -7.01304 -20.91928 9.16619 -7.43043 -12.37676 28.54842 -3.73915 -2.83368 -51.0333 4.5336 3.82415 6.686
0.79104 0.94358 -0.4934 250.9774 0 -2.70558 6.35588 7.32678 18.05041 -31.30685 -7.90764 5.84714 29.93592 -4.91702 40.76063 90.03164 17.23343 40.07292 -15.22136 0.62692 55.14654 85.79146 23.63607 -58.32819 -34.09198 -0.03893 -3.06852 9.57474 -6.69705 -20.9469 9.10988 -7.43981 -12.59625 28.39684 -4.4386 -1.61288 -46.56608 4.67545 4.27635 7.93521
0.78667 0.94317 -0.48648 251.27565 0 -2.4547 6.12522 7.25202 18.87298 -31.35473 -8.46357 5.52778 29.84865 -3.86888 40.01059 89.68352 17.06955 40.35896 -15.26312 -0.9865 59.04292 86.72619 25.8958 -58.80812 -35.67395 0.15749 -3.46926 9.46807 -6.72605 -21.11198 9.28064 -7.57136 -12.73365 27.77942 -4.8035 -0.50026 -41.78889 4.73071 4.32964 7.98109
0.78238 0.94218 -0.47913 251.61044 0 -2.2592 5.90678 7.13156 19.44681 -31.37168 -8.85022 5.32325 29.7893 -2.94461 39.40676 89.38414 16.99186 40.54738 -15.28153 -2.32565 62.60664 86.48307 28.40894 -59.87402 -36.58003 0.34476 -3.87205 9.40177 -6.88492 -21.32686 9.53678 -7.74603 -12.83184 26.9719 -5.04428 0.55568 -36.9158 4.75013 4.25063 7.62814
0.77806 0.94143 -0.47185 251.926 0 -2.03277 5.69181 7.0213 20.11483 -31.39529 -9.30437 5.07137 29.7073 -1.99002 38.75541 89.07921 16.87912 40.76484 -15.31011 -3.62442 66.27633 86.65993 30.82377 -60.63299 -37.72924 0.52853 -4.28019 9.30967 -6.98348 -21.51975 9.75565 -7.90288 -12.94776 26.24499 -5.34751 1.63273 -32.14537 4.78731 4.24072 7.48497
0.7737 0.94076 -0.46509 252.25374 0 -1.83203 5.43778 6.95336 20.86274 -31.45028 -9.79526 4.7976 29.66588 -0.92339 38.01525 88.70348 16.74548 41.04738 -15.34199 -5.61854 70.15462 87.30134 33.18527 -61.56818 -39.16404 0.75001 -4.66371 9.25052 -7.09327 -21.7057 9.97114 -8.05269 -13.05899 25.53234 -5.62106 2.72347 -27.09225 4.82069 4.19931 7.23606
0.76946 0.9398 -0.45713 252.5621 0 -1.59046 5.26911 6.78829 21.38613 -31.43224 -10.17151 4.596 29.54715 -0.11964 37.49887 88.48525 16.67725 41.17322 -15.36067 -6.10238 73.50523 86.69856 35.70882 -62.27787 -39.84099 0.88949 -5.09759 9.13058 -7.20602 -21.92186 10.21104 -8.22564 -13.17231 24.74872 -5.92843 3.77302 -22.62493 4.84865 4.18788 7.1042
0.76545 0.93817 -0.4462 252.83554 0 -1.22151 5.3242 6.3537 21.33638 -31.22357 -10.26046 4.58191 29.20867 -0.02283 37.55714 88.71266 16.76782 40.86258 -15.35155 -2.45996 75.56775 83.02612 38.64661 -62.16989 -38.54854 0.79524 -5.67618 8.84592 -7.3246 -22.1848 10.51693 -8.47048 -13.30268 23.8157 -6.36103 4.74395 -19.71366 4.92065 4.31313 7.42533
0.76156 0.9363 -0.43404 253.08308 0 -0.80934 5.46647 5.82526 21.07129 -30.94195 -10.24196 4.63433 28.79201 -0.18527 37.83832 89.09314 16.92182 40.40193 -15.3293 2.68098 77.09113 78.14054 41.73089 -61.8231 -36.52229 0.61975 -6.30245 8.49514 -7.43676 -22.48383 10.83943 -8.7332 -13.43538 22.81922 -6.83229 5.67456 -17.41507 4.98098 4.46834 7.86857
0.75766 0.93456 -0.42231 253.32487 0 -0.41771 5.57476 5.34836 20.91422 -30.6914 -10.28156 4.64541 28.41035 -0.22128 38.02333 89.38894 17.04779 40.02821 -15.31091 7.13104 78.80496 73.75221 44.72742 -61.61802 -34.85631 0.48675 -6.9048 8.16746 -7.53076 -22.77935 11.14295 -8.97663 -13.5687 21.85328 -7.28547 6.60819 -14.89489 5.01195 4.59531 8.23544
0.75357 0.93267 -0.41112 253.6427 0 -0.02509 5.65974 4.83301 20.70713 -30.44821 -10.27811 4.70541 28.02989 -0.29538 38.19092 89.74985 17.17351 39.57366 -15.30038 11.66466 80.74549 69.51431 47.82373 -61.29318 -33.05223 0.32977 -7.5235 7.87502 -7.71408 -23.01154 11.50272 -9.27137 -13.69995 20.87354 -7.73636 7.59591 -12.12945 5.18129 4.7801 8.68412
0.74992 0.93107 -0.39851 253.79449 0 0.3775 5.81373 4.37519 20.55442 -30.1732 -10.3385 4.68029 27.63049 -0.35327 38.44674 90.01135 17.3135 39.25095 -15.27097 16.33593 82.08035 64.73586 50.74207 -61.15376 -31.37248 0.20385 -8.11098 7.48731 -7.71349 -23.39687 11.74189 -9.45954 -13.82846 19.90974 -8.20287 8.47271 -10.0235 5.0685 4.85253 8.98729
0.74735 0.93025 -0.38234 253.5032 0 0.78854 6.13715 4.10639 20.62226 -29.82502 -10.62388 4.3826 27.17742 -0.27612 38.88369 89.95775 17.47889 39.34759 -15.18999 21.37448 81.96053 58.37283 53.14256 -61.57712 -30.19875 0.18033 -8.67042 6.90134 -7.15817 -24.08367 11.69506 -9.37838 -14.01989 19.00927 -8.7028 8.96574 -9.57716 4.1078 4.61478 8.93974
0.74523 0.92974 -0.36479 253.04413 0 1.20995 6.52663 3.89729 20.75054 -29.44836 -10.97383 4.00057 26.71228 -0.17852 39.40228 89.79994 17.65568 39.57892 -15.09112 26.43734 81.23683 51.58224 55.35444 -62.19267 -29.18187 0.19128 -9.18216 6.21289 -6.4252 -24.94508 11.51503 -9.18417 -14.19614 18.12763 -9.21731 9.36683 -9.77711 2.87719 4.26259 8.72867
